<svg width="130" height="130" viewBox="0 0 130 130" fill="none" xmlns="http://www.w3.org/2000/svg">
<rect width="130" height="130" fill="black"/>
<path d="M53.7988 47.9663C51.8361 45.0419 50 41.8615 50 38.0406C50 29.8866 56.5425 23.2909 64.5833 23.3335C72.6242 23.2909 79.1667 29.8866 79.1667 38.0406C79.1667 41.8615 77.3306 45.0419 75.3678 47.9663C73.5528 50.6985 72.0333 52.7263 70.556 55.0103C68.551 58.2762 67.1159 61.2218 67.1159 65C67.1159 68.7782 68.5299 72.0013 70.556 74.9897C71.8855 77.2737 73.5528 79.3015 75.3678 82.0337C77.3306 84.9581 79.1667 88.1385 79.1667 91.9594C79.1667 100.113 72.6242 106.709 64.5833 106.666C56.5424 106.709 50 100.113 50 91.9594C50 88.1385 51.8361 84.9581 53.7988 82.0337C55.6138 79.3015 57.2811 77.2737 58.6107 74.9897C60.6368 72.0013 62.0508 68.7782 62.0508 65C62.0508 61.2218 60.6157 58.2762 58.6107 55.0103C57.1334 52.7263 55.6138 50.6985 53.7988 47.9663Z" fill="white"/>
</svg>
