<svg width="512" height="512" viewBox="0 0 512 512" fill="none" xmlns="http://www.w3.org/2000/svg">
<circle cx="256" cy="256" r="13" fill="#FF4405" fill-opacity="0.5"/>
<circle cx="256" cy="256" r="7" fill="black" stroke="#FF4405" stroke-width="12"/>
<path d="M254.199 253.261C253.883 252.79 253.588 252.279 253.588 251.664C253.588 250.353 254.64 249.292 255.933 249.299C257.226 249.292 258.278 250.353 258.278 251.664C258.278 252.279 257.983 252.79 257.667 253.261C257.375 253.7 257.131 254.026 256.894 254.393C256.571 254.919 256.34 255.392 256.34 256C256.34 256.608 256.568 257.126 256.894 257.607C257.107 257.974 257.375 258.3 257.667 258.739C257.983 259.21 258.278 259.721 258.278 260.336C258.278 261.647 257.226 262.708 255.933 262.701C254.64 262.708 253.588 261.647 253.588 260.336C253.588 259.721 253.883 259.21 254.199 258.739C254.49 258.3 254.759 257.974 254.972 257.607C255.298 257.126 255.526 256.608 255.526 256C255.526 255.392 255.295 254.919 254.972 254.393C254.735 254.026 254.49 253.7 254.199 253.261Z" fill="white"/>
<circle cx="256" cy="256" r="7" fill="#4584D5" stroke="#FF4405" stroke-width="12"/>
</svg>
