<svg width="512" height="512" viewBox="0 0 512 512" fill="none" xmlns="http://www.w3.org/2000/svg">
<circle cx="256" cy="256" r="100" fill="#4584D5" stroke="#FF4405" stroke-width="12"/>
<circle cx="256" cy="256" r="128" fill="#FF4405" fill-opacity="0.5"/>
<circle cx="256" cy="256" r="100" fill="black" stroke="#FF4405" stroke-width="12"/>
<path d="M241.312 233.663C238.738 229.828 236.33 225.658 236.33 220.647C236.33 209.954 244.91 201.305 255.454 201.361C265.998 201.305 274.577 209.954 274.577 220.647C274.577 225.658 272.17 229.828 269.596 233.663C267.216 237.246 265.223 239.905 263.286 242.9C260.657 247.183 258.775 251.046 258.775 256C258.775 260.955 260.629 265.181 263.286 269.1C265.029 272.095 267.216 274.754 269.596 278.337C272.17 282.172 274.577 286.343 274.577 291.353C274.577 302.046 265.998 310.695 255.454 310.639C244.909 310.695 236.33 302.046 236.33 291.353C236.33 286.343 238.738 282.172 241.312 278.337C243.692 274.754 245.878 272.095 247.622 269.1C250.279 265.181 252.133 260.955 252.133 256C252.133 251.046 250.251 247.183 247.622 242.9C245.684 239.905 243.692 237.246 241.312 233.663Z" fill="white"/>
</svg>
