<svg width="512" height="512" viewBox="0 0 512 512" fill="none" xmlns="http://www.w3.org/2000/svg">
<circle cx="256" cy="256" r="206" fill="#FF4405" fill-opacity="0.5"/>
<circle cx="256" cy="256" r="200" fill="black" stroke="#FF4405" stroke-width="12"/>
<path d="M227.454 212.591C222.452 205.138 217.773 197.033 217.773 187.296C217.773 166.515 234.446 149.706 254.938 149.815C275.43 149.706 292.103 166.515 292.103 187.296C292.103 197.033 287.424 205.138 282.422 212.591C277.796 219.554 273.924 224.722 270.159 230.542C265.049 238.865 261.392 246.372 261.392 256.001C261.392 265.629 264.996 273.843 270.159 281.459C273.547 287.28 277.796 292.448 282.422 299.41C287.424 306.863 292.103 314.968 292.103 324.706C292.103 345.485 275.43 362.295 254.938 362.185C234.446 362.295 217.773 345.485 217.773 324.706C217.773 314.968 222.452 306.863 227.454 299.41C232.08 292.448 236.329 287.28 239.717 281.459C244.881 273.843 248.484 265.629 248.484 256.001C248.484 246.372 244.827 238.865 239.717 230.542C235.952 224.722 232.08 219.554 227.454 212.591Z" fill="white"/>
<circle cx="256" cy="256" r="200" fill="#4584D5" stroke="#FF4405" stroke-width="12"/>
</svg>
