<svg width="404" height="154" viewBox="0 0 404 154" fill="none" xmlns="http://www.w3.org/2000/svg">
<g filter="url(#filter0_d_6_53)">
<rect x="34.2341" y="116.859" width="42.1687" height="22.1261" fill="#932500" stroke="#FF4405"/>
<path d="M31.1089 116.359L33.7341 116.359L33.7341 139.485L31.1089 139.485C30.0043 139.485 29.1089 138.59 29.1089 137.485L29.1089 118.359C29.1089 117.254 30.0043 116.359 31.1089 116.359Z" fill="#FF4405"/>
<path d="M79.528 139.485L76.9028 139.485L76.9028 116.359L79.528 116.359C80.6326 116.359 81.528 117.254 81.528 118.359L81.528 137.485C81.528 138.59 80.6326 139.485 79.528 139.485Z" fill="#FF4405"/>
<path d="M32.1923 136.402V119.442" stroke="#932500" stroke-linecap="round"/>
<path d="M78.4445 119.442L78.4445 136.402" stroke="#932500" stroke-linecap="round"/>
</g>
<g filter="url(#filter1_d_6_53)">
<rect x="88.1949" y="116.859" width="282.68" height="22.1261" fill="#9A9A9A" stroke="#7C7C7C"/>
<path d="M85.0697 116.359L87.6949 116.359L87.6949 139.485L85.0697 139.485C83.9652 139.485 83.0697 138.59 83.0697 137.485L83.0697 118.359C83.0697 117.254 83.9652 116.359 85.0697 116.359Z" fill="#7C7C7C"/>
<path d="M374 139.485L371.375 139.485L371.375 116.359L374 116.359C375.105 116.359 376 117.254 376 118.359L376 137.485C376 138.59 375.105 139.485 374 139.485Z" fill="#7C7C7C"/>
<path d="M86.1532 136.402V119.442" stroke="#9A9A9A" stroke-linecap="round"/>
<path d="M372.917 119.442L372.917 136.402" stroke="#9A9A9A" stroke-linecap="round"/>
</g>
<g filter="url(#filter2_d_6_53)">
<rect x="34.2341" y="112.872" width="42.1687" height="22.1261" fill="#932500" stroke="#FF4405"/>
<path d="M31.1089 112.372L33.7341 112.372L33.7341 135.498L31.1089 135.498C30.0043 135.498 29.1089 134.602 29.1089 133.498L29.1089 114.372C29.1089 113.267 30.0043 112.372 31.1089 112.372Z" fill="#FF4405"/>
<path d="M79.528 135.498L76.9028 135.498L76.9028 112.372L79.528 112.372C80.6326 112.372 81.528 113.267 81.528 114.372L81.528 133.498C81.528 134.602 80.6326 135.498 79.528 135.498Z" fill="#FF4405"/>
<path d="M32.1923 132.414V115.455" stroke="#932500" stroke-linecap="round"/>
<path d="M78.4445 115.455L78.4445 132.414" stroke="#932500" stroke-linecap="round"/>
</g>
<g filter="url(#filter3_d_6_53)">
<rect x="34.2341" y="108.087" width="42.1687" height="22.1261" fill="#932500" stroke="#FF4405"/>
<path d="M31.1089 107.587L33.7341 107.587L33.7341 130.713L31.1089 130.713C30.0043 130.713 29.1089 129.818 29.1089 128.713L29.1089 109.587C29.1089 108.482 30.0043 107.587 31.1089 107.587Z" fill="#FF4405"/>
<path d="M79.528 130.713L76.9028 130.713L76.9028 107.587L79.528 107.587C80.6326 107.587 81.528 108.482 81.528 109.587L81.528 128.713C81.528 129.818 80.6326 130.713 79.528 130.713Z" fill="#FF4405"/>
<path d="M32.1923 127.63V110.671" stroke="#932500" stroke-linecap="round"/>
<path d="M78.4445 110.671L78.4445 127.63" stroke="#932500" stroke-linecap="round"/>
</g>
<g filter="url(#filter4_d_6_53)">
<rect x="34.2341" y="103.302" width="42.1687" height="22.1261" fill="#932500" stroke="#FF4405"/>
<path d="M31.1089 102.802L33.7341 102.802L33.7341 125.928L31.1089 125.928C30.0043 125.928 29.1089 125.033 29.1089 123.928L29.1089 104.802C29.1089 103.698 30.0043 102.802 31.1089 102.802Z" fill="#FF4405"/>
<path d="M79.528 125.928L76.9028 125.928L76.9028 102.802L79.528 102.802C80.6326 102.802 81.528 103.698 81.528 104.802L81.528 123.928C81.528 125.033 80.6326 125.928 79.528 125.928Z" fill="#FF4405"/>
<path d="M32.1923 122.845V105.886" stroke="#932500" stroke-linecap="round"/>
<path d="M78.4445 105.886L78.4445 122.845" stroke="#932500" stroke-linecap="round"/>
</g>
<path d="M36.6534 7.72727V31H33.8352V10.6818H33.6989L28.017 14.4545V11.5909L33.8352 7.72727H36.6534ZM50.9375 31.3182C49.2254 31.3182 47.767 30.8523 46.5625 29.9205C45.358 28.9811 44.4375 27.6212 43.8011 25.8409C43.1648 24.053 42.8466 21.8939 42.8466 19.3636C42.8466 16.8485 43.1648 14.7008 43.8011 12.9205C44.4451 11.1326 45.3693 9.76894 46.5739 8.82954C47.786 7.88257 49.2405 7.40909 50.9375 7.40909C52.6345 7.40909 54.0852 7.88257 55.2898 8.82954C56.5019 9.76894 57.4261 11.1326 58.0625 12.9205C58.7064 14.7008 59.0284 16.8485 59.0284 19.3636C59.0284 21.8939 58.7102 24.053 58.0739 25.8409C57.4375 27.6212 56.517 28.9811 55.3125 29.9205C54.108 30.8523 52.6496 31.3182 50.9375 31.3182ZM50.9375 28.8182C52.6345 28.8182 53.9527 28 54.892 26.3636C55.8314 24.7273 56.3011 22.3939 56.3011 19.3636C56.3011 17.3485 56.0852 15.6326 55.6534 14.2159C55.2292 12.7992 54.6155 11.7197 53.8125 10.9773C53.017 10.2348 52.0587 9.86364 50.9375 9.86364C49.2557 9.86364 47.9413 10.6932 46.9943 12.3523C46.0473 14.0038 45.5739 16.3409 45.5739 19.3636C45.5739 21.3788 45.786 23.0909 46.2102 24.5C46.6345 25.9091 47.2443 26.9811 48.0398 27.7159C48.8428 28.4508 49.8087 28.8182 50.9375 28.8182ZM70.9375 31.3182C69.2254 31.3182 67.767 30.8523 66.5625 29.9205C65.358 28.9811 64.4375 27.6212 63.8011 25.8409C63.1648 24.053 62.8466 21.8939 62.8466 19.3636C62.8466 16.8485 63.1648 14.7008 63.8011 12.9205C64.4451 11.1326 65.3693 9.76894 66.5739 8.82954C67.786 7.88257 69.2405 7.40909 70.9375 7.40909C72.6345 7.40909 74.0852 7.88257 75.2898 8.82954C76.5019 9.76894 77.4261 11.1326 78.0625 12.9205C78.7064 14.7008 79.0284 16.8485 79.0284 19.3636C79.0284 21.8939 78.7102 24.053 78.0739 25.8409C77.4375 27.6212 76.517 28.9811 75.3125 29.9205C74.108 30.8523 72.6496 31.3182 70.9375 31.3182ZM70.9375 28.8182C72.6345 28.8182 73.9527 28 74.892 26.3636C75.8314 24.7273 76.3011 22.3939 76.3011 19.3636C76.3011 17.3485 76.0852 15.6326 75.6534 14.2159C75.2292 12.7992 74.6155 11.7197 73.8125 10.9773C73.017 10.2348 72.0587 9.86364 70.9375 9.86364C69.2557 9.86364 67.9413 10.6932 66.9943 12.3523C66.0473 14.0038 65.5739 16.3409 65.5739 19.3636C65.5739 21.3788 65.786 23.0909 66.2102 24.5C66.6345 25.9091 67.2443 26.9811 68.0398 27.7159C68.8428 28.4508 69.8087 28.8182 70.9375 28.8182Z" fill="black"/>
<path d="M220.653 7.72727V31H217.835V10.6818H217.699L212.017 14.4545V11.5909L217.835 7.72727H220.653Z" fill="black"/>
<path d="M173.791 43.7273H174.842L177.314 49.7642H177.399L179.87 43.7273H180.922V51H180.098V45.4744H180.027L177.754 51H176.958L174.686 45.4744H174.615V51H173.791V43.7273ZM184.861 51.1136C184.335 51.1136 183.882 50.9976 183.501 50.7656C183.122 50.5312 182.829 50.2045 182.623 49.7855C182.42 49.3641 182.318 48.8741 182.318 48.3153C182.318 47.7566 182.42 47.2642 182.623 46.8381C182.829 46.4096 183.116 46.0758 183.483 45.8366C183.852 45.5952 184.283 45.4744 184.775 45.4744C185.059 45.4744 185.34 45.5218 185.617 45.6165C185.894 45.7112 186.146 45.8651 186.373 46.0781C186.601 46.2888 186.782 46.5682 186.917 46.9162C187.052 47.2642 187.119 47.6927 187.119 48.2017V48.5568H182.915V47.8324H186.267C186.267 47.5246 186.205 47.25 186.082 47.0085C185.961 46.767 185.789 46.5765 185.564 46.4368C185.341 46.2971 185.078 46.2273 184.775 46.2273C184.442 46.2273 184.153 46.3101 183.909 46.4759C183.667 46.6392 183.482 46.8523 183.351 47.1151C183.221 47.3778 183.156 47.6596 183.156 47.9602V48.4432C183.156 48.8551 183.227 49.2043 183.369 49.4908C183.514 49.7749 183.714 49.9915 183.969 50.1406C184.225 50.2874 184.522 50.3608 184.861 50.3608C185.081 50.3608 185.28 50.33 185.457 50.2685C185.637 50.2045 185.792 50.1098 185.922 49.9844C186.053 49.8565 186.153 49.6979 186.224 49.5085L187.034 49.7358C186.949 50.0104 186.805 50.2519 186.604 50.4602C186.403 50.6662 186.154 50.8272 185.858 50.9432C185.563 51.0568 185.23 51.1136 184.861 51.1136ZM188.394 51V45.5455H189.204V46.3693H189.26C189.36 46.0994 189.54 45.8804 189.8 45.7124C190.061 45.5443 190.354 45.4602 190.681 45.4602C190.742 45.4602 190.819 45.4614 190.912 45.4638C191.004 45.4661 191.074 45.4697 191.121 45.4744V46.3267C191.093 46.3196 191.028 46.3089 190.926 46.2947C190.827 46.2782 190.721 46.2699 190.61 46.2699C190.345 46.2699 190.108 46.3255 189.9 46.4368C189.694 46.5457 189.53 46.6972 189.41 46.8913C189.291 47.0831 189.232 47.3021 189.232 47.5483V51H188.394ZM194.165 51.1136C193.653 51.1136 193.213 50.9929 192.844 50.7514C192.474 50.5099 192.19 50.1773 191.991 49.7536C191.792 49.3298 191.693 48.8456 191.693 48.3011C191.693 47.7472 191.795 47.2583 191.998 46.8345C192.204 46.4084 192.491 46.0758 192.858 45.8366C193.227 45.5952 193.658 45.4744 194.15 45.4744C194.534 45.4744 194.88 45.5455 195.187 45.6875C195.495 45.8295 195.747 46.0284 195.944 46.2841C196.14 46.5398 196.262 46.8381 196.309 47.179H195.471C195.407 46.9304 195.265 46.7102 195.045 46.5185C194.827 46.3243 194.534 46.2273 194.165 46.2273C193.838 46.2273 193.551 46.3125 193.305 46.483C193.061 46.651 192.871 46.889 192.733 47.1967C192.599 47.5021 192.531 47.8608 192.531 48.2727C192.531 48.6941 192.597 49.0611 192.73 49.3736C192.865 49.6861 193.054 49.9287 193.298 50.1016C193.544 50.2744 193.833 50.3608 194.165 50.3608C194.382 50.3608 194.58 50.3229 194.758 50.2472C194.935 50.1714 195.086 50.0625 195.209 49.9205C195.332 49.7784 195.419 49.608 195.471 49.4091H196.309C196.262 49.7311 196.145 50.0211 195.958 50.2791C195.773 50.5348 195.528 50.7384 195.223 50.8899C194.92 51.0391 194.567 51.1136 194.165 51.1136ZM198.373 47.7188V51H197.535V43.7273H198.373V46.3977H198.444C198.572 46.116 198.763 45.8923 199.019 45.7266C199.277 45.5585 199.62 45.4744 200.049 45.4744C200.421 45.4744 200.746 45.549 201.025 45.6982C201.305 45.8449 201.521 46.071 201.675 46.3764C201.831 46.6795 201.91 47.0653 201.91 47.5341V51H201.072V47.5909C201.072 47.1577 200.959 46.8227 200.734 46.5859C200.512 46.3468 200.203 46.2273 199.807 46.2273C199.533 46.2273 199.287 46.2853 199.069 46.4013C198.853 46.5173 198.683 46.6866 198.557 46.9091C198.434 47.1316 198.373 47.4015 198.373 47.7188ZM205.048 51.1278C204.702 51.1278 204.389 51.0627 204.107 50.9325C203.825 50.8 203.601 50.6094 203.436 50.3608C203.27 50.1098 203.187 49.8068 203.187 49.4517C203.187 49.1392 203.249 48.8859 203.372 48.6918C203.495 48.4953 203.659 48.3414 203.865 48.2301C204.071 48.1188 204.299 48.036 204.547 47.9815C204.798 47.9247 205.05 47.8797 205.304 47.8466C205.635 47.804 205.904 47.772 206.11 47.7507C206.318 47.727 206.47 47.688 206.564 47.6335C206.661 47.5791 206.71 47.4844 206.71 47.3494V47.321C206.71 46.9706 206.614 46.6984 206.422 46.5043C206.233 46.3101 205.945 46.2131 205.559 46.2131C205.159 46.2131 204.846 46.3007 204.618 46.4759C204.391 46.651 204.231 46.8381 204.139 47.0369L203.343 46.7528C203.485 46.4214 203.675 46.1634 203.912 45.9787C204.151 45.7917 204.411 45.6615 204.693 45.5881C204.977 45.5123 205.256 45.4744 205.531 45.4744C205.706 45.4744 205.907 45.4957 206.135 45.5384C206.364 45.5786 206.586 45.6626 206.799 45.7905C207.014 45.9183 207.193 46.1113 207.335 46.3693C207.477 46.6274 207.548 46.973 207.548 47.4062V51H206.71V50.2614H206.667C206.61 50.3797 206.516 50.5064 206.383 50.6413C206.251 50.7763 206.074 50.8911 205.854 50.9858C205.634 51.0805 205.365 51.1278 205.048 51.1278ZM205.176 50.375C205.507 50.375 205.787 50.3099 206.014 50.1797C206.243 50.0495 206.416 49.8814 206.532 49.6754C206.651 49.4695 206.71 49.2528 206.71 49.0256V48.2585C206.674 48.3011 206.596 48.3402 206.475 48.3757C206.357 48.4089 206.22 48.4384 206.064 48.4645C205.91 48.4882 205.759 48.5095 205.613 48.5284C205.468 48.545 205.351 48.5592 205.261 48.571C205.043 48.5994 204.84 48.6456 204.65 48.7095C204.463 48.7711 204.312 48.8646 204.196 48.9901C204.082 49.1132 204.025 49.2812 204.025 49.4943C204.025 49.7855 204.133 50.0057 204.348 50.1548C204.566 50.3016 204.842 50.375 205.176 50.375ZM209.916 47.7188V51H209.078V45.5455H209.887V46.3977H209.958C210.086 46.1207 210.28 45.8982 210.541 45.7301C210.801 45.5597 211.137 45.4744 211.549 45.4744C211.919 45.4744 212.242 45.5502 212.519 45.7017C212.796 45.8509 213.011 46.0781 213.165 46.3835C213.319 46.6866 213.396 47.0701 213.396 47.5341V51H212.558V47.5909C212.558 47.1624 212.446 46.8286 212.224 46.5895C212.001 46.348 211.696 46.2273 211.308 46.2273C211.04 46.2273 210.801 46.2853 210.59 46.4013C210.382 46.5173 210.218 46.6866 210.097 46.9091C209.976 47.1316 209.916 47.4015 209.916 47.7188ZM217.299 45.5455V46.2557H214.473V45.5455H217.299ZM215.297 44.2386H216.135V49.4375C216.135 49.6742 216.169 49.8518 216.238 49.9702C216.309 50.0862 216.399 50.1643 216.507 50.2045C216.619 50.2424 216.736 50.2614 216.859 50.2614C216.951 50.2614 217.027 50.2566 217.086 50.2472C217.145 50.2353 217.193 50.2259 217.228 50.2188L217.399 50.9716C217.342 50.9929 217.263 51.0142 217.161 51.0355C217.059 51.0592 216.93 51.071 216.774 51.071C216.537 51.071 216.305 51.0201 216.078 50.9183C215.853 50.8165 215.666 50.6615 215.517 50.4531C215.37 50.2448 215.297 49.982 215.297 49.6648V44.2386ZM221.784 51H220.861L223.532 43.7273H224.441L227.111 51H226.188L224.015 44.8778H223.958L221.784 51ZM222.125 48.1591H225.847V48.9403H222.125V48.1591ZM230.332 53.1591C229.927 53.1591 229.579 53.107 229.288 53.0028C228.997 52.901 228.754 52.7661 228.56 52.598C228.368 52.4323 228.216 52.2547 228.102 52.0653L228.77 51.5966C228.845 51.696 228.941 51.8097 229.057 51.9375C229.173 52.0677 229.332 52.1802 229.533 52.2749C229.737 52.3719 230.003 52.4205 230.332 52.4205C230.772 52.4205 231.136 52.3139 231.422 52.1009C231.709 51.8878 231.852 51.554 231.852 51.0994V49.9915H231.781C231.719 50.0909 231.632 50.214 231.518 50.3608C231.407 50.5052 231.246 50.6342 231.035 50.7479C230.827 50.8591 230.545 50.9148 230.19 50.9148C229.75 50.9148 229.354 50.8106 229.004 50.6023C228.656 50.3939 228.38 50.0909 228.176 49.6932C227.975 49.2955 227.875 48.8125 227.875 48.2443C227.875 47.6856 227.973 47.1991 228.169 46.7848C228.366 46.3681 228.639 46.0462 228.99 45.8189C229.34 45.5893 229.745 45.4744 230.204 45.4744C230.559 45.4744 230.841 45.5336 231.049 45.652C231.26 45.768 231.421 45.9006 231.532 46.0497C231.646 46.1965 231.734 46.3172 231.795 46.4119H231.88V45.5455H232.69V51.1562C232.69 51.625 232.583 52.0062 232.37 52.2997C232.16 52.5956 231.876 52.8123 231.518 52.9496C231.163 53.0893 230.768 53.1591 230.332 53.1591ZM230.304 50.1619C230.64 50.1619 230.924 50.085 231.156 49.9311C231.388 49.7772 231.564 49.5559 231.685 49.267C231.806 48.9782 231.866 48.6326 231.866 48.2301C231.866 47.8371 231.807 47.4903 231.689 47.1896C231.57 46.889 231.395 46.6534 231.163 46.483C230.931 46.3125 230.645 46.2273 230.304 46.2273C229.949 46.2273 229.653 46.3172 229.416 46.4972C229.181 46.6771 229.005 46.9186 228.887 47.2216C228.771 47.5246 228.713 47.8608 228.713 48.2301C228.713 48.6089 228.772 48.9439 228.89 49.2351C229.011 49.5239 229.189 49.7512 229.423 49.9169C229.66 50.0803 229.953 50.1619 230.304 50.1619ZM235.062 47.7188V51H234.224V45.5455H235.034V46.3977H235.105C235.233 46.1207 235.427 45.8982 235.687 45.7301C235.948 45.5597 236.284 45.4744 236.696 45.4744C237.065 45.4744 237.388 45.5502 237.665 45.7017C237.942 45.8509 238.158 46.0781 238.311 46.3835C238.465 46.6866 238.542 47.0701 238.542 47.5341V51H237.704V47.5909C237.704 47.1624 237.593 46.8286 237.37 46.5895C237.148 46.348 236.842 46.2273 236.454 46.2273C236.187 46.2273 235.948 46.2853 235.737 46.4013C235.529 46.5173 235.364 46.6866 235.243 46.9091C235.123 47.1316 235.062 47.4015 235.062 47.7188ZM242.29 51.1136C241.797 51.1136 241.365 50.9964 240.993 50.7621C240.624 50.5277 240.335 50.1998 240.127 49.7784C239.921 49.357 239.818 48.8646 239.818 48.3011C239.818 47.733 239.921 47.237 240.127 46.8132C240.335 46.3894 240.624 46.0604 240.993 45.826C241.365 45.5916 241.797 45.4744 242.29 45.4744C242.782 45.4744 243.213 45.5916 243.582 45.826C243.954 46.0604 244.243 46.3894 244.449 46.8132C244.657 47.237 244.761 47.733 244.761 48.3011C244.761 48.8646 244.657 49.357 244.449 49.7784C244.243 50.1998 243.954 50.5277 243.582 50.7621C243.213 50.9964 242.782 51.1136 242.29 51.1136ZM242.29 50.3608C242.664 50.3608 242.971 50.2649 243.213 50.0732C243.454 49.8814 243.633 49.6293 243.749 49.3168C243.865 49.0043 243.923 48.6657 243.923 48.3011C243.923 47.9366 243.865 47.5968 243.749 47.282C243.633 46.9671 243.454 46.7126 243.213 46.5185C242.971 46.3243 242.664 46.2273 242.29 46.2273C241.916 46.2273 241.608 46.3243 241.366 46.5185C241.125 46.7126 240.946 46.9671 240.83 47.282C240.714 47.5968 240.656 47.9366 240.656 48.3011C240.656 48.6657 240.714 49.0043 240.83 49.3168C240.946 49.6293 241.125 49.8814 241.366 50.0732C241.608 50.2649 241.916 50.3608 242.29 50.3608ZM249.904 46.767L249.151 46.9801C249.104 46.8546 249.034 46.7327 248.942 46.6143C248.852 46.4936 248.729 46.3942 248.572 46.3161C248.416 46.2379 248.216 46.1989 247.972 46.1989C247.638 46.1989 247.36 46.2758 247.138 46.4297C246.918 46.5812 246.808 46.7741 246.808 47.0085C246.808 47.2169 246.883 47.3814 247.035 47.5021C247.186 47.6229 247.423 47.7235 247.745 47.804L248.555 48.0028C249.042 48.1212 249.406 48.3023 249.645 48.5462C249.884 48.7876 250.004 49.099 250.004 49.4801C250.004 49.7926 249.914 50.072 249.734 50.3182C249.556 50.5644 249.308 50.7585 248.988 50.9006C248.668 51.0426 248.297 51.1136 247.873 51.1136C247.317 51.1136 246.856 50.9929 246.491 50.7514C246.127 50.5099 245.896 50.1572 245.799 49.6932L246.594 49.4943C246.67 49.7879 246.813 50.008 247.024 50.1548C247.237 50.3016 247.515 50.375 247.859 50.375C248.249 50.375 248.559 50.2921 248.789 50.1264C249.021 49.9583 249.137 49.7571 249.137 49.5227C249.137 49.3333 249.071 49.1747 248.938 49.0469C248.806 48.9167 248.602 48.8196 248.327 48.7557L247.418 48.5426C246.919 48.4242 246.552 48.2408 246.317 47.9922C246.085 47.7412 245.969 47.4276 245.969 47.0511C245.969 46.7434 246.056 46.4711 246.229 46.2344C246.404 45.9976 246.642 45.8118 246.942 45.6768C247.246 45.5419 247.589 45.4744 247.972 45.4744C248.512 45.4744 248.936 45.5928 249.244 45.8295C249.554 46.0663 249.774 46.3788 249.904 46.767ZM253.637 45.5455V46.2557H250.811V45.5455H253.637ZM251.634 44.2386H252.472V49.4375C252.472 49.6742 252.507 49.8518 252.575 49.9702C252.646 50.0862 252.736 50.1643 252.845 50.2045C252.957 50.2424 253.074 50.2614 253.197 50.2614C253.289 50.2614 253.365 50.2566 253.424 50.2472C253.483 50.2353 253.531 50.2259 253.566 50.2188L253.737 50.9716C253.68 50.9929 253.601 51.0142 253.499 51.0355C253.397 51.0592 253.268 51.071 253.112 51.071C252.875 51.071 252.643 51.0201 252.416 50.9183C252.191 50.8165 252.004 50.6615 251.855 50.4531C251.708 50.2448 251.634 49.982 251.634 49.6648V44.2386ZM254.898 51V45.5455H255.736V51H254.898ZM255.324 44.6364C255.161 44.6364 255.02 44.5807 254.901 44.4695C254.785 44.3582 254.727 44.2244 254.727 44.0682C254.727 43.9119 254.785 43.7782 254.901 43.6669C255.02 43.5556 255.161 43.5 255.324 43.5C255.487 43.5 255.627 43.5556 255.743 43.6669C255.861 43.7782 255.921 43.9119 255.921 44.0682C255.921 44.2244 255.861 44.3582 255.743 44.4695C255.627 44.5807 255.487 44.6364 255.324 44.6364ZM259.487 51.1136C258.975 51.1136 258.535 50.9929 258.166 50.7514C257.797 50.5099 257.512 50.1773 257.314 49.7536C257.115 49.3298 257.015 48.8456 257.015 48.3011C257.015 47.7472 257.117 47.2583 257.321 46.8345C257.527 46.4084 257.813 46.0758 258.18 45.8366C258.549 45.5952 258.98 45.4744 259.473 45.4744C259.856 45.4744 260.202 45.5455 260.51 45.6875C260.817 45.8295 261.069 46.0284 261.266 46.2841C261.462 46.5398 261.584 46.8381 261.632 47.179H260.794C260.73 46.9304 260.588 46.7102 260.368 46.5185C260.15 46.3243 259.856 46.2273 259.487 46.2273C259.16 46.2273 258.874 46.3125 258.627 46.483C258.384 46.651 258.193 46.889 258.056 47.1967C257.921 47.5021 257.853 47.8608 257.853 48.2727C257.853 48.6941 257.92 49.0611 258.052 49.3736C258.187 49.6861 258.377 49.9287 258.62 50.1016C258.867 50.2744 259.155 50.3608 259.487 50.3608C259.705 50.3608 259.902 50.3229 260.08 50.2472C260.257 50.1714 260.408 50.0625 260.531 49.9205C260.654 49.7784 260.742 49.608 260.794 49.4091H261.632C261.584 49.7311 261.467 50.0211 261.28 50.2791C261.096 50.5348 260.85 50.7384 260.545 50.8899C260.242 51.0391 259.889 51.1136 259.487 51.1136ZM174.523 63V55.7273H176.981C177.551 55.7273 178.018 55.8303 178.38 56.0362C178.744 56.2398 179.014 56.5156 179.189 56.8636C179.365 57.2116 179.452 57.5999 179.452 58.0284C179.452 58.4569 179.365 58.8464 179.189 59.1967C179.017 59.5471 178.749 59.8265 178.387 60.0348C178.025 60.2408 177.561 60.3438 176.995 60.3438H175.233V59.5625H176.966C177.357 59.5625 177.671 59.495 177.907 59.3601C178.144 59.2251 178.316 59.0429 178.422 58.8132C178.531 58.5812 178.586 58.3196 178.586 58.0284C178.586 57.7372 178.531 57.4768 178.422 57.2472C178.316 57.0175 178.143 56.8376 177.904 56.7074C177.665 56.5748 177.348 56.5085 176.952 56.5085H175.404V63H174.523ZM180.757 63V57.5455H181.567V58.3693H181.624C181.723 58.0994 181.903 57.8804 182.164 57.7124C182.424 57.5443 182.718 57.4602 183.044 57.4602C183.106 57.4602 183.183 57.4614 183.275 57.4638C183.367 57.4661 183.437 57.4697 183.485 57.4744V58.3267C183.456 58.3196 183.391 58.3089 183.289 58.2947C183.19 58.2782 183.084 58.2699 182.973 58.2699C182.708 58.2699 182.471 58.3255 182.263 58.4368C182.057 58.5457 181.894 58.6972 181.773 58.8913C181.655 59.0831 181.595 59.3021 181.595 59.5483V63H180.757ZM186.528 63.1136C186.035 63.1136 185.603 62.9964 185.232 62.7621C184.862 62.5277 184.574 62.1998 184.365 61.7784C184.159 61.357 184.056 60.8646 184.056 60.3011C184.056 59.733 184.159 59.237 184.365 58.8132C184.574 58.3894 184.862 58.0604 185.232 57.826C185.603 57.5916 186.035 57.4744 186.528 57.4744C187.02 57.4744 187.451 57.5916 187.82 57.826C188.192 58.0604 188.481 58.3894 188.687 58.8132C188.895 59.237 188.999 59.733 188.999 60.3011C188.999 60.8646 188.895 61.357 188.687 61.7784C188.481 62.1998 188.192 62.5277 187.82 62.7621C187.451 62.9964 187.02 63.1136 186.528 63.1136ZM186.528 62.3608C186.902 62.3608 187.21 62.2649 187.451 62.0732C187.693 61.8814 187.871 61.6293 187.987 61.3168C188.103 61.0043 188.161 60.6657 188.161 60.3011C188.161 59.9366 188.103 59.5968 187.987 59.282C187.871 58.9671 187.693 58.7126 187.451 58.5185C187.21 58.3243 186.902 58.2273 186.528 58.2273C186.154 58.2273 185.846 58.3243 185.605 58.5185C185.363 58.7126 185.184 58.9671 185.068 59.282C184.952 59.5968 184.894 59.9366 184.894 60.3011C184.894 60.6657 184.952 61.0043 185.068 61.3168C185.184 61.6293 185.363 61.8814 185.605 62.0732C185.846 62.2649 186.154 62.3608 186.528 62.3608ZM192.338 63.1136C191.884 63.1136 191.483 62.9988 191.135 62.7692C190.787 62.5372 190.514 62.2105 190.318 61.7891C190.121 61.3653 190.023 60.8646 190.023 60.2869C190.023 59.714 190.121 59.2169 190.318 58.7955C190.514 58.3741 190.788 58.0485 191.138 57.8189C191.489 57.5893 191.893 57.4744 192.353 57.4744C192.708 57.4744 192.988 57.5336 193.194 57.652C193.403 57.768 193.561 57.9006 193.67 58.0497C193.781 58.1965 193.868 58.3172 193.929 58.4119H194V55.7273H194.838V63H194.029V62.1619H193.929C193.868 62.2614 193.78 62.3868 193.667 62.5384C193.553 62.6875 193.391 62.8213 193.18 62.9396C192.969 63.0556 192.689 63.1136 192.338 63.1136ZM192.452 62.3608C192.788 62.3608 193.072 62.2732 193.304 62.098C193.536 61.9205 193.713 61.6754 193.833 61.3629C193.954 61.0481 194.015 60.6847 194.015 60.2727C194.015 59.8655 193.955 59.5092 193.837 59.2038C193.719 58.8961 193.543 58.657 193.311 58.4865C193.079 58.3137 192.793 58.2273 192.452 58.2273C192.097 58.2273 191.801 58.3184 191.564 58.5007C191.33 58.6806 191.154 58.9257 191.035 59.2358C190.919 59.5436 190.861 59.8892 190.861 60.2727C190.861 60.661 190.92 61.0137 191.039 61.331C191.159 61.6458 191.337 61.8968 191.571 62.0838C191.808 62.2685 192.102 62.3608 192.452 62.3608ZM199.927 60.7699V57.5455H200.765V63H199.927V62.0767H199.87C199.743 62.3537 199.544 62.5893 199.274 62.7834C199.004 62.9751 198.663 63.071 198.251 63.071C197.91 63.071 197.607 62.9964 197.342 62.8473C197.077 62.6958 196.868 62.4685 196.717 62.1655C196.565 61.8601 196.49 61.4754 196.49 61.0114V57.5455H197.328V60.9545C197.328 61.3523 197.439 61.6695 197.662 61.9062C197.886 62.143 198.173 62.2614 198.521 62.2614C198.729 62.2614 198.941 62.2081 199.157 62.1016C199.374 61.995 199.557 61.8317 199.703 61.6115C199.853 61.3913 199.927 61.1108 199.927 60.7699ZM204.516 63.1136C204.005 63.1136 203.564 62.9929 203.195 62.7514C202.826 62.5099 202.542 62.1773 202.343 61.7536C202.144 61.3298 202.045 60.8456 202.045 60.3011C202.045 59.7472 202.146 59.2583 202.35 58.8345C202.556 58.4084 202.842 58.0758 203.209 57.8366C203.579 57.5952 204.01 57.4744 204.502 57.4744C204.885 57.4744 205.231 57.5455 205.539 57.6875C205.847 57.8295 206.099 58.0284 206.295 58.2841C206.492 58.5398 206.614 58.8381 206.661 59.179H205.823C205.759 58.9304 205.617 58.7102 205.397 58.5185C205.179 58.3243 204.885 58.2273 204.516 58.2273C204.189 58.2273 203.903 58.3125 203.657 58.483C203.413 58.651 203.222 58.889 203.085 59.1967C202.95 59.5021 202.883 59.8608 202.883 60.2727C202.883 60.6941 202.949 61.0611 203.081 61.3736C203.216 61.6861 203.406 61.9287 203.65 62.1016C203.896 62.2744 204.185 62.3608 204.516 62.3608C204.734 62.3608 204.932 62.3229 205.109 62.2472C205.287 62.1714 205.437 62.0625 205.56 61.9205C205.683 61.7784 205.771 61.608 205.823 61.4091H206.661C206.614 61.7311 206.497 62.0211 206.309 62.2791C206.125 62.5348 205.88 62.7384 205.574 62.8899C205.271 63.0391 204.919 63.1136 204.516 63.1136ZM210.258 57.5455V58.2557H207.432V57.5455H210.258ZM208.256 56.2386H209.094V61.4375C209.094 61.6742 209.128 61.8518 209.197 61.9702C209.268 62.0862 209.358 62.1643 209.466 62.2045C209.578 62.2424 209.695 62.2614 209.818 62.2614C209.91 62.2614 209.986 62.2566 210.045 62.2472C210.104 62.2353 210.152 62.2259 210.187 62.2188L210.358 62.9716C210.301 62.9929 210.222 63.0142 210.12 63.0355C210.018 63.0592 209.889 63.071 209.733 63.071C209.496 63.071 209.264 63.0201 209.037 62.9183C208.812 62.8165 208.625 62.6615 208.476 62.4531C208.329 62.2448 208.256 61.982 208.256 61.6648V56.2386ZM214.445 63V55.7273H216.903C217.471 55.7273 217.937 55.8243 218.302 56.0185C218.666 56.2102 218.936 56.4742 219.111 56.8104C219.287 57.1465 219.374 57.5289 219.374 57.9574C219.374 58.3859 219.287 58.7659 219.111 59.0973C218.936 59.4287 218.667 59.6892 218.305 59.8786C217.943 60.0656 217.48 60.1591 216.917 60.1591H214.928V59.3636H216.888C217.277 59.3636 217.589 59.3068 217.826 59.1932C218.065 59.0795 218.238 58.9186 218.344 58.7102C218.453 58.4995 218.508 58.2486 218.508 57.9574C218.508 57.6662 218.453 57.4117 218.344 57.1939C218.235 56.9761 218.061 56.808 217.822 56.6896C217.583 56.5689 217.267 56.5085 216.874 56.5085H215.326V63H214.445ZM217.868 59.733L219.658 63H218.635L216.874 59.733H217.868ZM222.956 63.1136C222.431 63.1136 221.977 62.9976 221.596 62.7656C221.217 62.5312 220.925 62.2045 220.719 61.7855C220.516 61.3641 220.414 60.8741 220.414 60.3153C220.414 59.7566 220.516 59.2642 220.719 58.8381C220.925 58.4096 221.212 58.0758 221.578 57.8366C221.948 57.5952 222.379 57.4744 222.871 57.4744C223.155 57.4744 223.436 57.5218 223.713 57.6165C223.99 57.7112 224.242 57.8651 224.469 58.0781C224.696 58.2888 224.877 58.5682 225.012 58.9162C225.147 59.2642 225.215 59.6927 225.215 60.2017V60.5568H221.01V59.8324H224.363C224.363 59.5246 224.301 59.25 224.178 59.0085C224.057 58.767 223.884 58.5765 223.659 58.4368C223.437 58.2971 223.174 58.2273 222.871 58.2273C222.537 58.2273 222.248 58.3101 222.005 58.4759C221.763 58.6392 221.577 58.8523 221.447 59.1151C221.317 59.3778 221.252 59.6596 221.252 59.9602V60.4432C221.252 60.8551 221.323 61.2043 221.465 61.4908C221.609 61.7749 221.809 61.9915 222.065 62.1406C222.321 62.2874 222.618 62.3608 222.956 62.3608C223.176 62.3608 223.375 62.33 223.553 62.2685C223.733 62.2045 223.888 62.1098 224.018 61.9844C224.148 61.8565 224.249 61.6979 224.32 61.5085L225.13 61.7358C225.044 62.0104 224.901 62.2519 224.7 62.4602C224.499 62.6662 224.25 62.8272 223.954 62.9432C223.658 63.0568 223.326 63.1136 222.956 63.1136ZM228.706 63.1136C228.194 63.1136 227.754 62.9929 227.385 62.7514C227.015 62.5099 226.731 62.1773 226.532 61.7536C226.333 61.3298 226.234 60.8456 226.234 60.3011C226.234 59.7472 226.336 59.2583 226.539 58.8345C226.745 58.4084 227.032 58.0758 227.399 57.8366C227.768 57.5952 228.199 57.4744 228.691 57.4744C229.075 57.4744 229.421 57.5455 229.728 57.6875C230.036 57.8295 230.288 58.0284 230.485 58.2841C230.681 58.5398 230.803 58.8381 230.85 59.179H230.012C229.949 58.9304 229.806 58.7102 229.586 58.5185C229.368 58.3243 229.075 58.2273 228.706 58.2273C228.379 58.2273 228.092 58.3125 227.846 58.483C227.602 58.651 227.412 58.889 227.275 59.1967C227.14 59.5021 227.072 59.8608 227.072 60.2727C227.072 60.6941 227.138 61.0611 227.271 61.3736C227.406 61.6861 227.595 61.9287 227.839 62.1016C228.085 62.2744 228.374 62.3608 228.706 62.3608C228.923 62.3608 229.121 62.3229 229.299 62.2472C229.476 62.1714 229.627 62.0625 229.75 61.9205C229.873 61.7784 229.96 61.608 230.012 61.4091H230.85C230.803 61.7311 230.686 62.0211 230.499 62.2791C230.314 62.5348 230.069 62.7384 229.764 62.8899C229.461 63.0391 229.108 63.1136 228.706 63.1136ZM234.292 63.1136C233.799 63.1136 233.367 62.9964 232.995 62.7621C232.626 62.5277 232.337 62.1998 232.129 61.7784C231.923 61.357 231.82 60.8646 231.82 60.3011C231.82 59.733 231.923 59.237 232.129 58.8132C232.337 58.3894 232.626 58.0604 232.995 57.826C233.367 57.5916 233.799 57.4744 234.292 57.4744C234.784 57.4744 235.215 57.5916 235.584 57.826C235.956 58.0604 236.245 58.3894 236.451 58.8132C236.659 59.237 236.763 59.733 236.763 60.3011C236.763 60.8646 236.659 61.357 236.451 61.7784C236.245 62.1998 235.956 62.5277 235.584 62.7621C235.215 62.9964 234.784 63.1136 234.292 63.1136ZM234.292 62.3608C234.666 62.3608 234.973 62.2649 235.215 62.0732C235.456 61.8814 235.635 61.6293 235.751 61.3168C235.867 61.0043 235.925 60.6657 235.925 60.3011C235.925 59.9366 235.867 59.5968 235.751 59.282C235.635 58.9671 235.456 58.7126 235.215 58.5185C234.973 58.3243 234.666 58.2273 234.292 58.2273C233.917 58.2273 233.61 58.3243 233.368 58.5185C233.127 58.7126 232.948 58.9671 232.832 59.282C232.716 59.5968 232.658 59.9366 232.658 60.3011C232.658 60.6657 232.716 61.0043 232.832 61.3168C232.948 61.6293 233.127 61.8814 233.368 62.0732C233.61 62.2649 233.917 62.3608 234.292 62.3608ZM238.042 63V57.5455H238.852V58.3693H238.909C239.008 58.0994 239.188 57.8804 239.449 57.7124C239.709 57.5443 240.003 57.4602 240.329 57.4602C240.391 57.4602 240.468 57.4614 240.56 57.4638C240.653 57.4661 240.722 57.4697 240.77 57.4744V58.3267C240.741 58.3196 240.676 58.3089 240.574 58.2947C240.475 58.2782 240.37 58.2699 240.258 58.2699C239.993 58.2699 239.756 58.3255 239.548 58.4368C239.342 58.5457 239.179 58.6972 239.058 58.8913C238.94 59.0831 238.881 59.3021 238.881 59.5483V63H238.042ZM243.657 63.1136C243.202 63.1136 242.801 62.9988 242.453 62.7692C242.105 62.5372 241.833 62.2105 241.636 61.7891C241.44 61.3653 241.341 60.8646 241.341 60.2869C241.341 59.714 241.44 59.2169 241.636 58.7955C241.833 58.3741 242.106 58.0485 242.456 57.8189C242.807 57.5893 243.212 57.4744 243.671 57.4744C244.026 57.4744 244.307 57.5336 244.513 57.652C244.721 57.768 244.88 57.9006 244.988 58.0497C245.1 58.1965 245.186 58.3172 245.248 58.4119H245.319V55.7273H246.157V63H245.347V62.1619H245.248C245.186 62.2614 245.099 62.3868 244.985 62.5384C244.871 62.6875 244.709 62.8213 244.498 62.9396C244.288 63.0556 244.007 63.1136 243.657 63.1136ZM243.77 62.3608C244.107 62.3608 244.391 62.2732 244.623 62.098C244.855 61.9205 245.031 61.6754 245.152 61.3629C245.273 61.0481 245.333 60.6847 245.333 60.2727C245.333 59.8655 245.274 59.5092 245.155 59.2038C245.037 58.8961 244.862 58.657 244.63 58.4865C244.398 58.3137 244.111 58.2273 243.77 58.2273C243.415 58.2273 243.119 58.3184 242.883 58.5007C242.648 58.6806 242.472 58.9257 242.354 59.2358C242.238 59.5436 242.18 59.8892 242.18 60.2727C242.18 60.661 242.239 61.0137 242.357 61.331C242.478 61.6458 242.655 61.8968 242.89 62.0838C243.126 62.2685 243.42 62.3608 243.77 62.3608ZM247.808 63V57.5455H248.646V63H247.808ZM248.234 56.6364C248.071 56.6364 247.93 56.5807 247.812 56.4695C247.696 56.3582 247.638 56.2244 247.638 56.0682C247.638 55.9119 247.696 55.7782 247.812 55.6669C247.93 55.5556 248.071 55.5 248.234 55.5C248.398 55.5 248.537 55.5556 248.653 55.6669C248.772 55.7782 248.831 55.9119 248.831 56.0682C248.831 56.2244 248.772 56.3582 248.653 56.4695C248.537 56.5807 248.398 56.6364 248.234 56.6364ZM251.019 59.7188V63H250.181V57.5455H250.991V58.3977H251.062C251.19 58.1207 251.384 57.8982 251.644 57.7301C251.905 57.5597 252.241 57.4744 252.653 57.4744C253.022 57.4744 253.345 57.5502 253.622 57.7017C253.899 57.8509 254.115 58.0781 254.268 58.3835C254.422 58.6866 254.499 59.0701 254.499 59.5341V63H253.661V59.5909C253.661 59.1624 253.55 58.8286 253.327 58.5895C253.105 58.348 252.799 58.2273 252.411 58.2273C252.144 58.2273 251.905 58.2853 251.694 58.4013C251.486 58.5173 251.321 58.6866 251.2 58.9091C251.08 59.1316 251.019 59.4015 251.019 59.7188ZM258.232 65.1591C257.828 65.1591 257.48 65.107 257.188 65.0028C256.897 64.901 256.655 64.7661 256.46 64.598C256.269 64.4323 256.116 64.2547 256.002 64.0653L256.67 63.5966C256.746 63.696 256.842 63.8097 256.958 63.9375C257.074 64.0677 257.232 64.1802 257.433 64.2749C257.637 64.3719 257.903 64.4205 258.232 64.4205C258.673 64.4205 259.036 64.3139 259.323 64.1009C259.609 63.8878 259.752 63.554 259.752 63.0994V61.9915H259.681C259.62 62.0909 259.532 62.214 259.419 62.3608C259.307 62.5052 259.146 62.6342 258.936 62.7479C258.727 62.8591 258.445 62.9148 258.09 62.9148C257.65 62.9148 257.255 62.8106 256.904 62.6023C256.556 62.3939 256.28 62.0909 256.077 61.6932C255.876 61.2955 255.775 60.8125 255.775 60.2443C255.775 59.6856 255.873 59.1991 256.07 58.7848C256.266 58.3681 256.54 58.0462 256.89 57.8189C257.24 57.5893 257.645 57.4744 258.105 57.4744C258.46 57.4744 258.741 57.5336 258.95 57.652C259.16 57.768 259.321 57.9006 259.433 58.0497C259.546 58.1965 259.634 58.3172 259.695 58.4119H259.781V57.5455H260.59V63.1562C260.59 63.625 260.484 64.0062 260.271 64.2997C260.06 64.5956 259.776 64.8123 259.419 64.9496C259.063 65.0893 258.668 65.1591 258.232 65.1591ZM258.204 62.1619C258.54 62.1619 258.824 62.085 259.056 61.9311C259.288 61.7772 259.465 61.5559 259.585 61.267C259.706 60.9782 259.767 60.6326 259.767 60.2301C259.767 59.8371 259.707 59.4903 259.589 59.1896C259.471 58.889 259.295 58.6534 259.063 58.483C258.831 58.3125 258.545 58.2273 258.204 58.2273C257.849 58.2273 257.553 58.3172 257.316 58.4972C257.082 58.6771 256.905 58.9186 256.787 59.2216C256.671 59.5246 256.613 59.8608 256.613 60.2301C256.613 60.6089 256.672 60.9439 256.791 61.2351C256.911 61.5239 257.089 61.7512 257.323 61.9169C257.56 62.0803 257.854 62.1619 258.204 62.1619Z" fill="black"/>
<path d="M54 76V75.5H53V76H53.5H54ZM53.5 100L56.3868 95H50.6132L53.5 100ZM53.5 76H53V95.5H53.5H54V76H53.5Z" fill="black"/>
<path d="M217.5 76V75.5H216.5V76H217H217.5ZM217 114L219.887 109H214.113L217 114ZM217 76H216.5V109.5H217H217.5V76H217Z" fill="black"/>
<path d="M12.6268 44.7273H13.6779L16.1495 50.7642H16.2347L18.7063 44.7273H19.7575V52H18.9336V46.4744H18.8626L16.5898 52H15.7944L13.5217 46.4744H13.4506V52H12.6268V44.7273ZM23.6966 52.1136C23.171 52.1136 22.7176 51.9976 22.3365 51.7656C21.9577 51.5312 21.6653 51.2045 21.4593 50.7855C21.2557 50.3641 21.1539 49.8741 21.1539 49.3153C21.1539 48.7566 21.2557 48.2642 21.4593 47.8381C21.6653 47.4096 21.9518 47.0758 22.3187 46.8366C22.688 46.5952 23.1189 46.4744 23.6113 46.4744C23.8954 46.4744 24.176 46.5218 24.4529 46.6165C24.7299 46.7112 24.9821 46.8651 25.2093 47.0781C25.4366 47.2888 25.6177 47.5682 25.7527 47.9162C25.8876 48.2642 25.9551 48.6927 25.9551 49.2017V49.5568H21.7505V48.8324H25.1028C25.1028 48.5246 25.0413 48.25 24.9181 48.0085C24.7974 47.767 24.6246 47.5765 24.3997 47.4368C24.1771 47.2971 23.9144 47.2273 23.6113 47.2273C23.2775 47.2273 22.9887 47.3101 22.7449 47.4759C22.5034 47.6392 22.3175 47.8523 22.1873 48.1151C22.0571 48.3778 21.992 48.6596 21.992 48.9602V49.4432C21.992 49.8551 22.063 50.2043 22.2051 50.4908C22.3495 50.7749 22.5495 50.9915 22.8052 51.1406C23.0609 51.2874 23.358 51.3608 23.6966 51.3608C23.9167 51.3608 24.1156 51.33 24.2931 51.2685C24.4731 51.2045 24.6281 51.1098 24.7583 50.9844C24.8886 50.8565 24.9892 50.6979 25.0602 50.5085L25.8699 50.7358C25.7846 51.0104 25.6414 51.2519 25.4402 51.4602C25.2389 51.6662 24.9904 51.8272 24.6944 51.9432C24.3985 52.0568 24.0659 52.1136 23.6966 52.1136ZM27.2299 52V46.5455H28.0396V47.3693H28.0964C28.1958 47.0994 28.3758 46.8804 28.6362 46.7124C28.8966 46.5443 29.1902 46.4602 29.5169 46.4602C29.5784 46.4602 29.6554 46.4614 29.7477 46.4638C29.84 46.4661 29.9099 46.4697 29.9572 46.4744V47.3267C29.9288 47.3196 29.8637 47.3089 29.7619 47.2947C29.6625 47.2782 29.5571 47.2699 29.4458 47.2699C29.1807 47.2699 28.944 47.3255 28.7356 47.4368C28.5297 47.5457 28.3663 47.6972 28.2456 47.8913C28.1272 48.0831 28.068 48.3021 28.068 48.5483V52H27.2299ZM33.0005 52.1136C32.4892 52.1136 32.0488 51.9929 31.6795 51.7514C31.3102 51.5099 31.0261 51.1773 30.8272 50.7536C30.6284 50.3298 30.5289 49.8456 30.5289 49.3011C30.5289 48.7472 30.6307 48.2583 30.8343 47.8345C31.0403 47.4084 31.3268 47.0758 31.6937 46.8366C32.063 46.5952 32.4939 46.4744 32.9863 46.4744C33.3699 46.4744 33.7155 46.5455 34.0233 46.6875C34.331 46.8295 34.5832 47.0284 34.7797 47.2841C34.9761 47.5398 35.0981 47.8381 35.1454 48.179H34.3074C34.2434 47.9304 34.1014 47.7102 33.8812 47.5185C33.6634 47.3243 33.3699 47.2273 33.0005 47.2273C32.6738 47.2273 32.3874 47.3125 32.1412 47.483C31.8973 47.651 31.7067 47.889 31.5694 48.1967C31.4345 48.5021 31.367 48.8608 31.367 49.2727C31.367 49.6941 31.4333 50.0611 31.5659 50.3736C31.7008 50.6861 31.8902 50.9287 32.1341 51.1016C32.3803 51.2744 32.6691 51.3608 33.0005 51.3608C33.2183 51.3608 33.416 51.3229 33.5936 51.2472C33.7711 51.1714 33.9215 51.0625 34.0446 50.9205C34.1677 50.7784 34.2553 50.608 34.3074 50.4091H35.1454C35.0981 50.7311 34.9809 51.0211 34.7939 51.2791C34.6092 51.5348 34.3642 51.7384 34.0588 51.8899C33.7557 52.0391 33.403 52.1136 33.0005 52.1136ZM37.2086 48.7188V52H36.3706V44.7273H37.2086V47.3977H37.2797C37.4075 47.116 37.5993 46.8923 37.8549 46.7266C38.113 46.5585 38.4563 46.4744 38.8848 46.4744C39.2565 46.4744 39.582 46.549 39.8613 46.6982C40.1407 46.8449 40.3573 47.071 40.5112 47.3764C40.6674 47.6795 40.7456 48.0653 40.7456 48.5341V52H39.9075V48.5909C39.9075 48.1577 39.795 47.8227 39.5701 47.5859C39.3476 47.3468 39.0386 47.2273 38.6433 47.2273C38.3687 47.2273 38.1225 47.2853 37.9047 47.4013C37.6892 47.5173 37.5188 47.6866 37.3933 47.9091C37.2702 48.1316 37.2086 48.4015 37.2086 48.7188ZM43.8839 52.1278C43.5382 52.1278 43.2246 52.0627 42.9428 51.9325C42.6611 51.8 42.4374 51.6094 42.2717 51.3608C42.1059 51.1098 42.0231 50.8068 42.0231 50.4517C42.0231 50.1392 42.0846 49.8859 42.2077 49.6918C42.3308 49.4953 42.4954 49.3414 42.7013 49.2301C42.9073 49.1188 43.1346 49.036 43.3832 48.9815C43.6341 48.9247 43.8862 48.8797 44.1396 48.8466C44.471 48.804 44.7397 48.772 44.9457 48.7507C45.154 48.727 45.3055 48.688 45.4002 48.6335C45.4973 48.5791 45.5458 48.4844 45.5458 48.3494V48.321C45.5458 47.9706 45.4499 47.6984 45.2582 47.5043C45.0688 47.3101 44.7811 47.2131 44.3952 47.2131C43.9951 47.2131 43.6815 47.3007 43.4542 47.4759C43.2269 47.651 43.0671 47.8381 42.9748 48.0369L42.1793 47.7528C42.3214 47.4214 42.5108 47.1634 42.7475 46.9787C42.9866 46.7917 43.247 46.6615 43.5288 46.5881C43.8129 46.5123 44.0922 46.4744 44.3668 46.4744C44.542 46.4744 44.7433 46.4957 44.9705 46.5384C45.2002 46.5786 45.4215 46.6626 45.6346 46.7905C45.85 46.9183 46.0288 47.1113 46.1708 47.3693C46.3129 47.6274 46.3839 47.973 46.3839 48.4062V52H45.5458V51.2614H45.5032C45.4464 51.3797 45.3517 51.5064 45.2191 51.6413C45.0865 51.7763 44.9102 51.8911 44.69 51.9858C44.4698 52.0805 44.2011 52.1278 43.8839 52.1278ZM44.0117 51.375C44.3432 51.375 44.6225 51.3099 44.8498 51.1797C45.0794 51.0495 45.2522 50.8814 45.3683 50.6754C45.4866 50.4695 45.5458 50.2528 45.5458 50.0256V49.2585C45.5103 49.3011 45.4322 49.3402 45.3114 49.3757C45.1931 49.4089 45.0558 49.4384 44.8995 49.4645C44.7456 49.4882 44.5953 49.5095 44.4485 49.5284C44.3041 49.545 44.1869 49.5592 44.0969 49.571C43.8791 49.5994 43.6755 49.6456 43.4862 49.7095C43.2991 49.7711 43.1476 49.8646 43.0316 49.9901C42.918 50.1132 42.8612 50.2812 42.8612 50.4943C42.8612 50.7855 42.9689 51.0057 43.1843 51.1548C43.4021 51.3016 43.6779 51.375 44.0117 51.375ZM48.7516 48.7188V52H47.9135V46.5455H48.7232V47.3977H48.7942C48.9221 47.1207 49.1162 46.8982 49.3766 46.7301C49.637 46.5597 49.9732 46.4744 50.3851 46.4744C50.7544 46.4744 51.0776 46.5502 51.3546 46.7017C51.6316 46.8509 51.847 47.0781 52.0009 47.3835C52.1548 47.6866 52.2317 48.0701 52.2317 48.5341V52H51.3936V48.5909C51.3936 48.1624 51.2824 47.8286 51.0598 47.5895C50.8373 47.348 50.5319 47.2273 50.1436 47.2273C49.8761 47.2273 49.637 47.2853 49.4263 47.4013C49.218 47.5173 49.0534 47.6866 48.9327 47.9091C48.812 48.1316 48.7516 48.4015 48.7516 48.7188ZM56.1353 46.5455V47.2557H53.3086V46.5455H56.1353ZM54.1325 45.2386H54.9705V50.4375C54.9705 50.6742 55.0049 50.8518 55.0735 50.9702C55.1445 51.0862 55.2345 51.1643 55.3434 51.2045C55.4547 51.2424 55.5719 51.2614 55.695 51.2614C55.7873 51.2614 55.863 51.2566 55.9222 51.2472C55.9814 51.2353 56.0288 51.2259 56.0643 51.2188L56.2347 51.9716C56.1779 51.9929 56.0986 52.0142 55.9968 52.0355C55.895 52.0592 55.766 52.071 55.6097 52.071C55.373 52.071 55.141 52.0201 54.9137 51.9183C54.6888 51.8165 54.5018 51.6615 54.3526 51.4531C54.2058 51.2448 54.1325 50.982 54.1325 50.6648V45.2386ZM64.2994 46.5455C64.2567 46.1856 64.0839 45.9062 63.7809 45.7074C63.4779 45.5085 63.1062 45.4091 62.6658 45.4091C62.3439 45.4091 62.0621 45.4612 61.8207 45.5653C61.5816 45.6695 61.3945 45.8127 61.2596 45.995C61.127 46.1773 61.0607 46.3845 61.0607 46.6165C61.0607 46.8106 61.1069 46.9775 61.1992 47.1172C61.2939 47.2545 61.4147 47.3693 61.5614 47.4616C61.7082 47.5516 61.8621 47.6262 62.0231 47.6854C62.1841 47.7422 62.332 47.7884 62.467 47.8239L63.2056 48.0227C63.395 48.0724 63.6057 48.1411 63.8377 48.2287C64.0721 48.3163 64.2958 48.4358 64.5089 48.5874C64.7243 48.7365 64.9019 48.9283 65.0415 49.1626C65.1812 49.397 65.2511 49.6847 65.2511 50.0256C65.2511 50.4186 65.1481 50.7737 64.9421 51.0909C64.7385 51.4081 64.4402 51.6603 64.0472 51.8473C63.6566 52.0343 63.1819 52.1278 62.6232 52.1278C62.1024 52.1278 61.6514 52.0438 61.2702 51.8757C60.8915 51.7076 60.5932 51.4732 60.3754 51.1726C60.1599 50.8719 60.038 50.5227 60.0096 50.125H60.9187C60.9424 50.3996 61.0347 50.6269 61.1957 50.8068C61.359 50.9844 61.565 51.117 61.8136 51.2045C62.0645 51.2898 62.3344 51.3324 62.6232 51.3324C62.9594 51.3324 63.2612 51.2779 63.5288 51.169C63.7963 51.0578 64.0082 50.9039 64.1644 50.7074C64.3207 50.5085 64.3988 50.2765 64.3988 50.0114C64.3988 49.7699 64.3313 49.5734 64.1964 49.4219C64.0614 49.2704 63.8839 49.1473 63.6637 49.0526C63.4435 48.9579 63.2056 48.875 62.9499 48.804L62.055 48.5483C61.4869 48.3849 61.0371 48.1518 60.7056 47.8487C60.3742 47.5457 60.2085 47.1491 60.2085 46.6591C60.2085 46.2519 60.3185 45.8968 60.5387 45.5938C60.7612 45.2884 61.0595 45.0516 61.4336 44.8835C61.81 44.7131 62.2302 44.6278 62.6942 44.6278C63.163 44.6278 63.5797 44.7119 63.9442 44.88C64.3088 45.0457 64.5977 45.273 64.8107 45.5618C65.0262 45.8506 65.1398 46.1785 65.1516 46.5455H64.2994ZM66.5854 54.0455V46.5455H67.3951V47.4119H67.4945C67.556 47.3172 67.6413 47.1965 67.7502 47.0497C67.8614 46.9006 68.0201 46.768 68.226 46.652C68.4344 46.5336 68.7161 46.4744 69.0712 46.4744C69.5305 46.4744 69.9353 46.5893 70.2857 46.8189C70.6361 47.0485 70.9095 47.3741 71.106 47.7955C71.3025 48.2169 71.4007 48.714 71.4007 49.2869C71.4007 49.8646 71.3025 50.3653 71.106 50.7891C70.9095 51.2105 70.6373 51.5372 70.2892 51.7692C69.9412 51.9988 69.54 52.1136 69.0854 52.1136C68.735 52.1136 68.4545 52.0556 68.2438 51.9396C68.0331 51.8213 67.8709 51.6875 67.7573 51.5384C67.6436 51.3868 67.556 51.2614 67.4945 51.1619H67.4235V54.0455H66.5854ZM67.4093 49.2727C67.4093 49.6847 67.4696 50.0481 67.5904 50.3629C67.7111 50.6754 67.8875 50.9205 68.1195 51.098C68.3515 51.2732 68.6356 51.3608 68.9718 51.3608C69.3221 51.3608 69.6145 51.2685 69.8489 51.0838C70.0856 50.8968 70.2632 50.6458 70.3816 50.331C70.5023 50.0137 70.5627 49.661 70.5627 49.2727C70.5627 48.8892 70.5035 48.5436 70.3851 48.2358C70.2691 47.9257 70.0927 47.6806 69.856 47.5007C69.6216 47.3184 69.3269 47.2273 68.9718 47.2273C68.6309 47.2273 68.3444 47.3137 68.1124 47.4865C67.8804 47.657 67.7052 47.8961 67.5868 48.2038C67.4685 48.5092 67.4093 48.8655 67.4093 49.2727ZM74.9661 52.1136C74.4405 52.1136 73.9872 51.9976 73.606 51.7656C73.2272 51.5312 72.9348 51.2045 72.7289 50.7855C72.5253 50.3641 72.4235 49.8741 72.4235 49.3153C72.4235 48.7566 72.5253 48.2642 72.7289 47.8381C72.9348 47.4096 73.2213 47.0758 73.5882 46.8366C73.9576 46.5952 74.3884 46.4744 74.8809 46.4744C75.165 46.4744 75.4455 46.5218 75.7225 46.6165C75.9995 46.7112 76.2516 46.8651 76.4789 47.0781C76.7061 47.2888 76.8873 47.5682 77.0222 47.9162C77.1571 48.2642 77.2246 48.6927 77.2246 49.2017V49.5568H73.0201V48.8324H76.3723C76.3723 48.5246 76.3108 48.25 76.1877 48.0085C76.0669 47.767 75.8941 47.5765 75.6692 47.4368C75.4467 47.2971 75.1839 47.2273 74.8809 47.2273C74.5471 47.2273 74.2582 47.3101 74.0144 47.4759C73.7729 47.6392 73.5871 47.8523 73.4569 48.1151C73.3266 48.3778 73.2615 48.6596 73.2615 48.9602V49.4432C73.2615 49.8551 73.3326 50.2043 73.4746 50.4908C73.619 50.7749 73.8191 50.9915 74.0748 51.1406C74.3304 51.2874 74.6275 51.3608 74.9661 51.3608C75.1863 51.3608 75.3851 51.33 75.5627 51.2685C75.7426 51.2045 75.8977 51.1098 76.0279 50.9844C76.1581 50.8565 76.2587 50.6979 76.3297 50.5085L77.1394 50.7358C77.0542 51.0104 76.9109 51.2519 76.7097 51.4602C76.5085 51.6662 76.2599 51.8272 75.964 51.9432C75.668 52.0568 75.3354 52.1136 74.9661 52.1136ZM80.7154 52.1136C80.204 52.1136 79.7637 51.9929 79.3944 51.7514C79.025 51.5099 78.7409 51.1773 78.5421 50.7536C78.3432 50.3298 78.2438 49.8456 78.2438 49.3011C78.2438 48.7472 78.3456 48.2583 78.5492 47.8345C78.7551 47.4084 79.0416 47.0758 79.4086 46.8366C79.7779 46.5952 80.2087 46.4744 80.7012 46.4744C81.0847 46.4744 81.4303 46.5455 81.7381 46.6875C82.0459 46.8295 82.298 47.0284 82.4945 47.2841C82.691 47.5398 82.8129 47.8381 82.8603 48.179H82.0222C81.9583 47.9304 81.8162 47.7102 81.5961 47.5185C81.3783 47.3243 81.0847 47.2273 80.7154 47.2273C80.3887 47.2273 80.1022 47.3125 79.856 47.483C79.6122 47.651 79.4216 47.889 79.2843 48.1967C79.1493 48.5021 79.0819 48.8608 79.0819 49.2727C79.0819 49.6941 79.1481 50.0611 79.2807 50.3736C79.4157 50.6861 79.6051 50.9287 79.8489 51.1016C80.0951 51.2744 80.3839 51.3608 80.7154 51.3608C80.9332 51.3608 81.1309 51.3229 81.3084 51.2472C81.486 51.1714 81.6363 51.0625 81.7594 50.9205C81.8825 50.7784 81.9701 50.608 82.0222 50.4091H82.8603C82.8129 50.7311 82.6957 51.0211 82.5087 51.2791C82.324 51.5348 82.079 51.7384 81.7736 51.8899C81.4706 52.0391 81.1178 52.1136 80.7154 52.1136ZM84.0854 52V46.5455H84.9235V52H84.0854ZM84.5115 45.6364C84.3482 45.6364 84.2073 45.5807 84.089 45.4695C83.973 45.3582 83.915 45.2244 83.915 45.0682C83.915 44.9119 83.973 44.7782 84.089 44.6669C84.2073 44.5556 84.3482 44.5 84.5115 44.5C84.6749 44.5 84.8146 44.5556 84.9306 44.6669C85.0489 44.7782 85.1081 44.9119 85.1081 45.0682C85.1081 45.2244 85.0489 45.3582 84.9306 45.4695C84.8146 45.5807 84.6749 45.6364 84.5115 45.6364ZM88.8874 46.5455V47.2557H85.9471V46.5455H88.8874ZM86.8278 52V45.7926C86.8278 45.4801 86.9012 45.2197 87.0479 45.0114C87.1947 44.803 87.3853 44.6468 87.6197 44.5426C87.854 44.4384 88.1014 44.3864 88.3619 44.3864C88.5678 44.3864 88.7359 44.4029 88.8661 44.4361C88.9963 44.4692 89.0934 44.5 89.1573 44.5284L88.9158 45.2528C88.8732 45.2386 88.814 45.2209 88.7383 45.1996C88.6649 45.1783 88.5678 45.1676 88.4471 45.1676C88.1701 45.1676 87.9701 45.2375 87.8469 45.3771C87.7262 45.5168 87.6658 45.7216 87.6658 45.9915V52H86.8278ZM90.062 52V46.5455H90.9V52H90.062ZM90.4881 45.6364C90.3248 45.6364 90.1839 45.5807 90.0655 45.4695C89.9495 45.3582 89.8915 45.2244 89.8915 45.0682C89.8915 44.9119 89.9495 44.7782 90.0655 44.6669C90.1839 44.5556 90.3248 44.5 90.4881 44.5C90.6515 44.5 90.7911 44.5556 90.9071 44.6669C91.0255 44.7782 91.0847 44.9119 91.0847 45.0682C91.0847 45.2244 91.0255 45.3582 90.9071 45.4695C90.7911 45.5807 90.6515 45.6364 90.4881 45.6364ZM94.6509 52.1136C94.1396 52.1136 93.6992 51.9929 93.3299 51.7514C92.9606 51.5099 92.6765 51.1773 92.4776 50.7536C92.2788 50.3298 92.1793 49.8456 92.1793 49.3011C92.1793 48.7472 92.2811 48.2583 92.4847 47.8345C92.6907 47.4084 92.9772 47.0758 93.3441 46.8366C93.7134 46.5952 94.1443 46.4744 94.6367 46.4744C95.0202 46.4744 95.3659 46.5455 95.6737 46.6875C95.9814 46.8295 96.2335 47.0284 96.43 47.2841C96.6265 47.5398 96.7485 47.8381 96.7958 48.179H95.9577C95.8938 47.9304 95.7518 47.7102 95.5316 47.5185C95.3138 47.3243 95.0202 47.2273 94.6509 47.2273C94.3242 47.2273 94.0378 47.3125 93.7915 47.483C93.5477 47.651 93.3571 47.889 93.2198 48.1967C93.0849 48.5021 93.0174 48.8608 93.0174 49.2727C93.0174 49.6941 93.0837 50.0611 93.2163 50.3736C93.3512 50.6861 93.5406 50.9287 93.7844 51.1016C94.0307 51.2744 94.3195 51.3608 94.6509 51.3608C94.8687 51.3608 95.0664 51.3229 95.244 51.2472C95.4215 51.1714 95.5719 51.0625 95.695 50.9205C95.8181 50.7784 95.9057 50.608 95.9577 50.4091H96.7958C96.7485 50.7311 96.6313 51.0211 96.4442 51.2791C96.2596 51.5348 96.0146 51.7384 95.7092 51.8899C95.4061 52.0391 95.0534 52.1136 94.6509 52.1136ZM42.8239 56.7273V64H41.9432V56.7273H42.8239ZM45.3141 60.7188V64H44.476V58.5455H45.2857V59.3977H45.3567C45.4846 59.1207 45.6787 58.8982 45.9391 58.7301C46.1995 58.5597 46.5357 58.4744 46.9476 58.4744C47.3169 58.4744 47.6401 58.5502 47.9171 58.7017C48.1941 58.8509 48.4095 59.0781 48.5634 59.3835C48.7173 59.6866 48.7942 60.0701 48.7942 60.5341V64H47.9561V60.5909C47.9561 60.1624 47.8449 59.8286 47.6223 59.5895C47.3998 59.348 47.0944 59.2273 46.7061 59.2273C46.4386 59.2273 46.1995 59.2853 45.9888 59.4013C45.7805 59.5173 45.6159 59.6866 45.4952 59.9091C45.3745 60.1316 45.3141 60.4015 45.3141 60.7188ZM52.6978 58.5455V59.2557H49.8711V58.5455H52.6978ZM50.695 57.2386H51.533V62.4375C51.533 62.6742 51.5674 62.8518 51.636 62.9702C51.707 63.0862 51.797 63.1643 51.9059 63.2045C52.0172 63.2424 52.1344 63.2614 52.2575 63.2614C52.3498 63.2614 52.4255 63.2566 52.4847 63.2472C52.5439 63.2353 52.5913 63.2259 52.6268 63.2188L52.7972 63.9716C52.7404 63.9929 52.6611 64.0142 52.5593 64.0355C52.4575 64.0592 52.3285 64.071 52.1722 64.071C51.9355 64.071 51.7035 64.0201 51.4762 63.9183C51.2513 63.8165 51.0643 63.6615 50.9151 63.4531C50.7683 63.2448 50.695 62.982 50.695 62.6648V57.2386ZM53.9585 64V58.5455H54.7681V59.3693H54.8249C54.9244 59.0994 55.1043 58.8804 55.3647 58.7124C55.6251 58.5443 55.9187 58.4602 56.2454 58.4602C56.3069 58.4602 56.3839 58.4614 56.4762 58.4638C56.5685 58.4661 56.6384 58.4697 56.6857 58.4744V59.3267C56.6573 59.3196 56.5922 59.3089 56.4904 59.2947C56.391 59.2782 56.2856 59.2699 56.1744 59.2699C55.9092 59.2699 55.6725 59.3255 55.4641 59.4368C55.2582 59.5457 55.0948 59.6972 54.9741 59.8913C54.8557 60.0831 54.7965 60.3021 54.7965 60.5483V64H53.9585ZM59.729 64.1136C59.2366 64.1136 58.8046 63.9964 58.4329 63.7621C58.0636 63.5277 57.7747 63.1998 57.5664 62.7784C57.3604 62.357 57.2575 61.8646 57.2575 61.3011C57.2575 60.733 57.3604 60.237 57.5664 59.8132C57.7747 59.3894 58.0636 59.0604 58.4329 58.826C58.8046 58.5916 59.2366 58.4744 59.729 58.4744C60.2215 58.4744 60.6523 58.5916 61.0217 58.826C61.3933 59.0604 61.6822 59.3894 61.8881 59.8132C62.0965 60.237 62.2006 60.733 62.2006 61.3011C62.2006 61.8646 62.0965 62.357 61.8881 62.7784C61.6822 63.1998 61.3933 63.5277 61.0217 63.7621C60.6523 63.9964 60.2215 64.1136 59.729 64.1136ZM59.729 63.3608C60.1031 63.3608 60.4109 63.2649 60.6523 63.0732C60.8938 62.8814 61.0726 62.6293 61.1886 62.3168C61.3046 62.0043 61.3626 61.6657 61.3626 61.3011C61.3626 60.9366 61.3046 60.5968 61.1886 60.282C61.0726 59.9671 60.8938 59.7126 60.6523 59.5185C60.4109 59.3243 60.1031 59.2273 59.729 59.2273C59.355 59.2273 59.0472 59.3243 58.8058 59.5185C58.5643 59.7126 58.3855 59.9671 58.2695 60.282C58.1535 60.5968 58.0955 60.9366 58.0955 61.3011C58.0955 61.6657 58.1535 62.0043 58.2695 62.3168C58.3855 62.6293 58.5643 62.8814 58.8058 63.0732C59.0472 63.2649 59.355 63.3608 59.729 63.3608ZM67.3436 59.767L66.5907 59.9801C66.5434 59.8546 66.4735 59.7327 66.3812 59.6143C66.2913 59.4936 66.1681 59.3942 66.0119 59.3161C65.8556 59.2379 65.6556 59.1989 65.4118 59.1989C65.0779 59.1989 64.7998 59.2758 64.5772 59.4297C64.3571 59.5812 64.247 59.7741 64.247 60.0085C64.247 60.2169 64.3227 60.3814 64.4743 60.5021C64.6258 60.6229 64.8625 60.7235 65.1845 60.804L65.9941 61.0028C66.4818 61.1212 66.8452 61.3023 67.0843 61.5462C67.3234 61.7876 67.443 62.099 67.443 62.4801C67.443 62.7926 67.353 63.072 67.1731 63.3182C66.9956 63.5644 66.747 63.7585 66.4274 63.9006C66.1078 64.0426 65.7361 64.1136 65.3123 64.1136C64.756 64.1136 64.2955 63.9929 63.9309 63.7514C63.5663 63.5099 63.3355 63.1572 63.2385 62.6932L64.0339 62.4943C64.1097 62.7879 64.2529 63.008 64.4636 63.1548C64.6767 63.3016 64.9548 63.375 65.2981 63.375C65.6887 63.375 65.9989 63.2921 66.2285 63.1264C66.4605 62.9583 66.5765 62.7571 66.5765 62.5227C66.5765 62.3333 66.5102 62.1747 66.3777 62.0469C66.2451 61.9167 66.0415 61.8196 65.7669 61.7557L64.8578 61.5426C64.3583 61.4242 63.9913 61.2408 63.7569 60.9922C63.5249 60.7412 63.4089 60.4276 63.4089 60.0511C63.4089 59.7434 63.4953 59.4711 63.6681 59.2344C63.8433 58.9976 64.0813 58.8118 64.3819 58.6768C64.685 58.5419 65.0282 58.4744 65.4118 58.4744C65.9515 58.4744 66.3753 58.5928 66.6831 58.8295C66.9932 59.0663 67.2134 59.3788 67.3436 59.767Z" fill="black"/>
<defs>
<filter id="filter0_d_6_53" x="25.1088" y="116.359" width="60.4191" height="31.1261" filterUnits="userSpaceOnUse" color-interpolation-filters="sRGB">
<feFlood flood-opacity="0" result="BackgroundImageFix"/>
<feColorMatrix in="SourceAlpha" type="matrix" values="0 0 0 0 0 0 0 0 0 0 0 0 0 0 0 0 0 0 127 0" result="hardAlpha"/>
<feOffset dy="4"/>
<feGaussianBlur stdDeviation="2"/>
<feComposite in2="hardAlpha" operator="out"/>
<feColorMatrix type="matrix" values="0 0 0 0 0 0 0 0 0 0 0 0 0 0 0 0 0 0 0.59 0"/>
<feBlend mode="normal" in2="BackgroundImageFix" result="effect1_dropShadow_6_53"/>
<feBlend mode="normal" in="SourceGraphic" in2="effect1_dropShadow_6_53" result="shape"/>
</filter>
<filter id="filter1_d_6_53" x="79.0697" y="116.359" width="300.93" height="31.1261" filterUnits="userSpaceOnUse" color-interpolation-filters="sRGB">
<feFlood flood-opacity="0" result="BackgroundImageFix"/>
<feColorMatrix in="SourceAlpha" type="matrix" values="0 0 0 0 0 0 0 0 0 0 0 0 0 0 0 0 0 0 127 0" result="hardAlpha"/>
<feOffset dy="4"/>
<feGaussianBlur stdDeviation="2"/>
<feComposite in2="hardAlpha" operator="out"/>
<feColorMatrix type="matrix" values="0 0 0 0 0 0 0 0 0 0 0 0 0 0 0 0 0 0 0.35 0"/>
<feBlend mode="normal" in2="BackgroundImageFix" result="effect1_dropShadow_6_53"/>
<feBlend mode="normal" in="SourceGraphic" in2="effect1_dropShadow_6_53" result="shape"/>
</filter>
<filter id="filter2_d_6_53" x="25.1088" y="112.372" width="60.4191" height="31.1261" filterUnits="userSpaceOnUse" color-interpolation-filters="sRGB">
<feFlood flood-opacity="0" result="BackgroundImageFix"/>
<feColorMatrix in="SourceAlpha" type="matrix" values="0 0 0 0 0 0 0 0 0 0 0 0 0 0 0 0 0 0 127 0" result="hardAlpha"/>
<feOffset dy="4"/>
<feGaussianBlur stdDeviation="2"/>
<feComposite in2="hardAlpha" operator="out"/>
<feColorMatrix type="matrix" values="0 0 0 0 0 0 0 0 0 0 0 0 0 0 0 0 0 0 0.59 0"/>
<feBlend mode="normal" in2="BackgroundImageFix" result="effect1_dropShadow_6_53"/>
<feBlend mode="normal" in="SourceGraphic" in2="effect1_dropShadow_6_53" result="shape"/>
</filter>
<filter id="filter3_d_6_53" x="25.1088" y="107.587" width="60.4191" height="31.1261" filterUnits="userSpaceOnUse" color-interpolation-filters="sRGB">
<feFlood flood-opacity="0" result="BackgroundImageFix"/>
<feColorMatrix in="SourceAlpha" type="matrix" values="0 0 0 0 0 0 0 0 0 0 0 0 0 0 0 0 0 0 127 0" result="hardAlpha"/>
<feOffset dy="4"/>
<feGaussianBlur stdDeviation="2"/>
<feComposite in2="hardAlpha" operator="out"/>
<feColorMatrix type="matrix" values="0 0 0 0 0 0 0 0 0 0 0 0 0 0 0 0 0 0 0.59 0"/>
<feBlend mode="normal" in2="BackgroundImageFix" result="effect1_dropShadow_6_53"/>
<feBlend mode="normal" in="SourceGraphic" in2="effect1_dropShadow_6_53" result="shape"/>
</filter>
<filter id="filter4_d_6_53" x="25.1088" y="102.802" width="60.4191" height="31.1261" filterUnits="userSpaceOnUse" color-interpolation-filters="sRGB">
<feFlood flood-opacity="0" result="BackgroundImageFix"/>
<feColorMatrix in="SourceAlpha" type="matrix" values="0 0 0 0 0 0 0 0 0 0 0 0 0 0 0 0 0 0 127 0" result="hardAlpha"/>
<feOffset dy="4"/>
<feGaussianBlur stdDeviation="2"/>
<feComposite in2="hardAlpha" operator="out"/>
<feColorMatrix type="matrix" values="0 0 0 0 0 0 0 0 0 0 0 0 0 0 0 0 0 0 0.59 0"/>
<feBlend mode="normal" in2="BackgroundImageFix" result="effect1_dropShadow_6_53"/>
<feBlend mode="normal" in="SourceGraphic" in2="effect1_dropShadow_6_53" result="shape"/>
</filter>
</defs>
</svg>
